<svg width="32" height="48" viewBox="0 0 32 48" fill="none" xmlns="http://www.w3.org/2000/svg">
<path d="M2.16 19V17.71H5.055C5.825 17.71 6.5 17.545 7.08 17.215C7.66 16.875 8.11 16.41 8.43 15.82C8.76 15.23 8.925 14.55 8.925 13.78C8.925 13.02 8.76 12.345 8.43 11.755C8.1 11.165 7.645 10.705 7.065 10.375C6.485 10.045 5.815 9.88 5.055 9.88H2.175V8.59H5.085C5.845 8.59 6.545 8.72 7.185 8.98C7.835 9.24 8.395 9.605 8.865 10.075C9.345 10.545 9.715 11.095 9.975 11.725C10.245 12.355 10.38 13.045 10.38 13.795C10.38 14.535 10.245 15.225 9.975 15.865C9.715 16.495 9.35 17.045 8.88 17.515C8.41 17.985 7.85 18.35 7.2 18.61C6.56 18.87 5.865 19 5.115 19H2.16ZM1.23 19V8.59H2.64V19H1.23ZM12.3335 19V8.59H13.7435V19H12.3335ZM13.2935 19V17.71H19.2635V19H13.2935ZM13.2935 14.29V13.06H18.7685V14.29H13.2935ZM13.2935 9.88V8.59H19.1885V9.88H13.2935Z" fill="black"/>
<path d="M1.23 42V31.59H2.64V42H1.23ZM2.19 42V40.71H8.16V42H2.19ZM2.19 37.29V36.06H7.665V37.29H2.19ZM2.19 32.88V31.59H8.085V32.88H2.19ZM10.0777 42V31.59H11.0677L11.4877 33.225V42H10.0777ZM17.2777 42L10.8877 33.465L11.0677 31.59L17.4727 40.11L17.2777 42ZM17.2777 42L16.8577 40.455V31.59H18.2677V42H17.2777Z" fill="black"/>
</svg>
